<?xml version="1.0" standalone="no"?>
<!DOCTYPE svg PUBLIC "-//W3C//DTD SVG 20010904//EN"
 "http://www.w3.org/TR/2001/REC-SVG-20010904/DTD/svg10.dtd">
<svg version="1.0" xmlns="http://www.w3.org/2000/svg"
 width="1000.000000pt" height="1000.000000pt" viewBox="0 0 1000.000000 1000.000000"
 preserveAspectRatio="xMidYMid meet">
<metadata>
Created by potrace 1.16, written by Peter Selinger 2001-2019
</metadata>
<g transform="translate(0.000000,1000.000000) scale(0.100000,-0.100000)"
fill="#000000" stroke="none">
<path d="M4680 9149 c-162 -14 -355 -40 -358 -49 -2 -4 -11 -6 -20 -4 -9 3
-37 0 -62 -5 -37 -7 -40 -9 -15 -10 17 -1 37 -6 45 -11 14 -10 -10 -8 -78 6
-12 2 -95 -14 -185 -36 -175 -43 -354 -98 -323 -99 14 -1 16 -4 7 -14 -6 -8
-8 -17 -4 -20 9 -9 25 -9 20 1 -2 4 8 17 24 30 27 22 28 22 26 2 -1 -12 -8
-20 -19 -20 -10 0 -18 -7 -18 -15 0 -8 -6 -15 -12 -16 -7 0 -21 -2 -31 -4 -14
-3 -16 -1 -7 10 9 11 6 13 -17 11 -15 -2 -36 -4 -46 -5 -10 0 -15 -5 -12 -11
4 -6 -1 -7 -11 -3 -14 5 -10 10 22 24 46 21 57 23 49 9 -4 -6 1 -7 11 -3 14 5
14 7 1 14 -24 14 -376 -127 -559 -224 -56 -29 -75 -44 -68 -52 7 -9 5 -17 -7
-26 -16 -13 -17 -12 -5 2 10 14 10 18 -1 22 -20 7 -140 -62 -134 -77 3 -7 -1
-13 -9 -13 -7 0 -11 5 -7 10 3 5 -4 4 -16 -2 -22 -12 -29 -31 -10 -31 5 0 7 4
4 10 -4 6 1 7 11 3 11 -4 13 -8 6 -11 -7 -2 -9 -8 -6 -14 4 -6 -1 -6 -13 1
-11 6 -24 7 -28 3 -5 -4 -4 0 1 8 7 13 5 13 -16 -1 -14 -8 -42 -25 -62 -38
-27 -16 -36 -27 -33 -43 9 -43 -43 -83 -58 -44 -7 17 1 26 24 26 9 0 19 7 23
15 3 8 3 15 0 15 -17 0 -193 -134 -187 -143 3 -6 1 -7 -5 -3 -15 9 -215 -152
-206 -166 4 -7 3 -8 -4 -4 -6 4 -37 -17 -69 -45 -70 -63 -71 -64 -56 -55 9 5
11 2 7 -8 -3 -9 -10 -13 -15 -10 -5 3 -9 0 -9 -6 0 -6 -4 -9 -8 -6 -5 3 -24
-11 -43 -31 -19 -20 -27 -32 -19 -28 8 5 5 -3 -8 -17 -15 -17 -20 -31 -15 -44
7 -18 6 -18 -11 -1 -17 17 -20 17 -37 1 -10 -9 -17 -21 -16 -27 1 -6 -9 -16
-23 -23 -30 -16 -62 -53 -55 -64 3 -5 0 -12 -6 -16 -8 -5 -9 -3 -4 7 4 8 -8
-1 -28 -20 -28 -27 -34 -37 -25 -48 8 -10 7 -12 -4 -8 -10 4 -31 -13 -60 -47
-40 -47 -45 -59 -43 -94 2 -39 1 -40 -28 -40 -23 0 -26 2 -15 10 8 6 20 22 27
36 10 21 7 19 -17 -8 -41 -46 -98 -127 -84 -118 7 4 12 1 12 -8 0 -9 -6 -13
-13 -10 -8 3 -20 -3 -27 -13 -12 -15 -12 -16 0 -5 19 16 35 15 21 -2 -18 -21
10 -39 29 -18 13 14 12 15 -4 9 -12 -5 -16 -3 -14 5 7 19 38 22 38 4 0 -8 -5
-18 -11 -22 -8 -5 -8 -9 1 -14 6 -4 -11 -7 -38 -6 -39 1 -48 4 -40 14 6 6 8
12 4 12 -14 0 -109 -157 -108 -177 1 -13 -3 -23 -9 -23 -5 0 -7 5 -3 12 4 7 3
8 -5 4 -6 -4 -9 -12 -6 -17 4 -5 1 -9 -5 -9 -6 0 -8 -5 -5 -10 4 -6 11 -7 17
-4 6 4 14 0 19 -7 15 -24 10 -34 -6 -13 -13 16 -15 16 -13 2 2 -9 -1 -17 -7
-17 -5 -1 -10 3 -10 8 0 21 -14 21 -25 1 -8 -15 -8 -20 -1 -16 16 10 13 -7 -5
-30 -13 -16 -15 -16 -10 -1 11 36 -4 14 -49 -68 -26 -46 -44 -89 -40 -95 4 -6
1 -9 -7 -8 -7 2 -13 -4 -13 -12 0 -8 5 -14 12 -13 7 2 10 -4 6 -12 -4 -12 -9
-13 -19 -5 -10 9 -17 2 -34 -30 -21 -41 -19 -66 3 -54 8 5 8 3 0 -7 -15 -16
-17 -33 -3 -24 6 3 7 -1 4 -10 -9 -24 -29 -11 -27 16 l3 24 -15 -26 c-7 -14
-15 -32 -17 -40 -2 -8 -7 -17 -12 -21 -6 -4 -10 -35 -11 -70 -1 -68 -8 -88
-31 -88 -12 0 -13 4 -2 23 7 12 11 29 10 37 -2 12 -1 12 6 2 6 -9 9 -3 9 18 0
16 -1 30 -3 30 -6 0 -106 -266 -108 -286 0 -12 -4 -20 -7 -18 -7 4 -41 -107
-35 -114 2 -2 16 9 30 25 19 20 26 23 26 12 0 -9 -16 -24 -35 -35 -25 -13 -35
-24 -31 -37 2 -9 1 -15 -3 -12 -9 5 -29 -64 -71 -241 -49 -206 -80 -411 -100
-657 l-11 -128 41 -38 c22 -20 40 -44 40 -53 0 -23 -57 -81 -71 -72 -9 5 -11
-37 -5 -182 4 -103 10 -191 14 -194 4 -3 8 -41 10 -85 6 -172 94 -591 174
-830 28 -86 36 -100 56 -101 39 -2 42 -4 42 -19 0 -8 -9 -19 -20 -25 -11 -6
-20 -18 -20 -26 0 -9 5 -12 12 -8 7 4 8 3 4 -4 -9 -15 80 -231 102 -250 9 -7
12 -11 5 -7 -7 3 3 -28 22 -69 53 -117 75 -157 83 -152 5 3 14 0 22 -6 12 -8
12 -9 -2 -4 -25 8 -23 3 23 -80 38 -69 56 -94 43 -59 -4 10 -2 13 8 10 7 -3
14 -15 15 -25 1 -12 -3 -18 -9 -14 -6 4 -5 -3 2 -16 11 -20 25 -20 25 1 0 5 5
8 10 7 6 -1 9 -9 7 -18 -2 -11 2 -10 13 4 16 21 21 11 6 -13 -5 -7 -13 -11
-19 -7 -6 3 -13 2 -17 -4 -3 -5 -1 -10 5 -10 6 0 9 -4 5 -9 -3 -5 0 -13 6 -17
8 -4 9 -3 5 4 -4 7 -3 12 3 12 5 0 13 -5 16 -10 4 -6 12 -7 18 -3 9 5 9 3 0
-8 -7 -9 -8 -20 -3 -28 4 -8 6 -19 4 -25 -2 -6 23 -49 56 -95 53 -76 59 -81
65 -60 4 17 14 25 30 27 31 2 41 -15 21 -37 -20 -22 -20 -45 -1 -61 15 -12 55
-5 55 11 0 11 11 11 29 0 11 -7 10 -13 -4 -35 -9 -14 -20 -24 -24 -22 -4 3
-13 1 -21 -4 -19 -12 116 -174 138 -165 11 4 12 2 4 -8 -9 -10 -2 -22 30 -53
22 -21 38 -34 35 -29 -3 6 3 16 13 23 17 10 18 10 4 -16 -13 -26 -12 -29 28
-69 23 -23 44 -40 47 -37 3 3 0 8 -7 13 -9 5 -9 12 3 27 14 18 14 18 15 -6 0
-14 1 -33 2 -43 1 -10 55 -69 121 -131 88 -84 124 -112 139 -108 22 5 20 10
-9 15 -38 5 -71 44 -38 44 8 0 13 -3 10 -5 -8 -8 34 -34 44 -28 11 7 20 -14
14 -32 -3 -6 -10 -10 -16 -6 -7 3 10 -15 38 -40 34 -30 52 -41 57 -33 5 8 8 7
8 -4 0 -8 10 -25 23 -36 28 -26 48 -37 46 -26 -4 22 3 32 29 41 30 10 61 2 80
-21 10 -12 7 -20 -18 -45 -17 -17 -26 -33 -21 -37 6 -3 21 7 35 22 20 21 28
24 39 15 8 -7 17 -8 22 -4 4 4 3 -3 -4 -15 -6 -12 -20 -28 -31 -36 -20 -14
-20 -15 6 -32 15 -9 24 -12 20 -7 -3 6 -1 14 5 18 7 4 9 3 6 -3 -4 -6 1 -19 9
-29 9 -10 13 -14 10 -7 -4 6 -2 14 4 18 5 3 10 1 10 -4 0 -6 7 -11 15 -11 9 0
12 6 9 17 -5 16 -3 15 10 -1 9 -11 14 -30 12 -42 -4 -18 4 -28 32 -46 20 -12
48 -29 62 -37 21 -14 23 -14 16 -1 -5 8 -6 12 -1 8 4 -4 17 -3 28 3 12 7 17 7
13 1 -3 -6 -1 -12 6 -14 7 -3 5 -7 -6 -11 -10 -4 -15 -3 -11 3 3 6 1 10 -4 10
-19 0 -12 -19 10 -31 12 -6 19 -7 16 -2 -3 5 4 10 16 10 17 2 19 0 7 -7 -18
-11 -11 -18 60 -57 59 -33 91 -35 68 -5 -12 15 -11 16 5 3 12 -9 14 -17 7 -26
-7 -8 12 -23 68 -52 183 -97 535 -238 559 -224 13 7 13 9 -1 14 -12 5 -15 3
-10 -5 5 -8 2 -9 -12 -4 -10 5 -38 15 -61 23 -24 8 -43 16 -43 18 0 1 13 2 29
1 16 -1 27 -4 24 -8 -2 -5 4 -9 14 -9 10 -1 31 -3 46 -5 23 -2 26 0 17 11 -9
11 -7 13 7 10 10 -2 24 -4 31 -4 6 -1 12 -8 12 -16 0 -8 8 -15 18 -15 11 0 18
-8 19 -20 2 -20 1 -20 -26 2 -16 13 -26 26 -24 31 5 9 -11 9 -20 0 -4 -3 -2
-12 4 -20 9 -10 7 -13 -7 -14 -31 -1 148 -56 323 -99 155 -38 213 -43 213 -18
0 7 5 6 14 -1 7 -6 22 -9 32 -5 16 5 16 4 4 -5 -8 -6 -26 -11 -40 -12 -18 -1
-14 -4 15 -10 22 -6 48 -8 57 -5 9 2 18 0 20 -4 8 -22 441 -60 678 -60 237 0
670 38 678 60 2 4 11 6 20 4 9 -3 35 -1 57 5 29 6 33 9 15 10 -14 1 -32 6 -40
12 -12 9 -12 10 4 5 10 -4 25 -1 32 5 9 7 14 8 14 1 0 -25 58 -21 213 18 177
44 353 98 323 99 -14 1 -16 4 -7 14 6 8 8 17 4 20 -9 9 -25 9 -20 -1 2 -4 -8
-17 -24 -30 -27 -22 -28 -22 -26 -2 1 12 8 20 19 20 10 0 18 7 18 15 0 8 6 15
13 16 6 0 20 2 30 4 14 3 16 1 7 -10 -9 -11 -6 -13 17 -11 15 2 36 4 46 5 10
0 15 5 12 11 -4 6 1 7 11 3 14 -5 10 -10 -22 -24 -46 -21 -57 -23 -49 -9 4 6
-1 7 -11 3 -13 -5 -14 -7 -2 -14 8 -4 44 3 86 18 60 21 71 29 67 44 -4 10 1
21 11 27 15 8 15 9 -1 15 -20 8 -11 27 13 26 14 0 14 -2 -2 -8 -17 -7 -16 -9
14 -19 29 -11 36 -10 49 4 15 15 14 16 -1 11 -10 -3 -20 -2 -23 4 -7 11 82 6
93 -6 4 -4 -4 -4 -18 -1 -14 4 -20 4 -14 -1 8 -5 -9 -16 -45 -30 -32 -13 -48
-16 -37 -7 14 10 16 14 5 14 -25 0 -45 -18 -33 -30 12 -12 167 47 159 60 -3 4
6 15 20 24 13 9 27 12 30 7 3 -5 -4 -13 -16 -16 -11 -4 -18 -9 -16 -11 8 -8
96 39 91 48 -3 4 -14 2 -24 -4 -24 -15 -37 -4 -20 17 15 18 -1 20 -18 3 -8 -8
-12 -8 -12 -1 0 11 22 23 42 23 6 0 7 -7 4 -16 -5 -12 -2 -15 10 -10 9 4 22 2
29 -4 10 -8 27 -4 67 16 45 23 50 28 33 35 -16 6 -17 8 -3 8 12 1 15 6 11 18
-6 15 -4 16 8 6 9 -8 20 -9 29 -3 11 7 12 10 2 10 -7 0 -10 4 -7 10 4 6 11 5
20 -3 11 -10 9 -14 -12 -25 -14 -8 -23 -16 -20 -18 3 -3 19 3 36 14 24 15 28
21 18 32 -10 10 -8 11 8 2 16 -9 31 -5 75 20 72 40 78 47 60 58 -12 7 -10 9 7
7 12 0 19 -5 16 -10 -3 -5 4 -4 16 2 22 12 29 31 10 31 -5 0 -7 -4 -4 -10 4
-6 -1 -7 -11 -3 -11 4 -13 8 -6 11 7 2 9 8 6 14 -4 6 1 6 13 -1 11 -6 24 -7
28 -3 5 4 4 1 0 -7 -5 -9 7 -5 31 9 72 44 79 50 80 78 3 40 3 42 15 42 5 0 7
-4 4 -10 -3 -5 1 -10 9 -10 9 0 16 5 16 11 0 5 5 7 10 4 15 -9 2 -25 -20 -25
-10 0 -20 -7 -24 -15 -3 -8 -3 -15 1 -15 13 0 203 142 199 149 -3 4 4 15 15
24 22 19 33 22 23 6 -4 -8 0 -7 15 1 13 6 19 16 15 23 -4 7 -4 9 1 5 4 -4 32
12 62 34 51 39 53 42 34 53 -20 10 -20 11 10 38 17 15 29 21 26 13 -3 -8 1
-17 10 -20 19 -8 35 2 27 16 -4 6 -2 8 3 5 6 -4 17 1 24 10 12 14 12 16 0 8
-10 -5 -12 -4 -7 4 4 6 11 9 16 6 10 -6 182 154 175 164 -10 17 19 80 39 86
39 13 46 13 46 3 0 -7 4 -7 13 0 13 11 16 50 4 68 -3 6 0 11 8 11 8 0 12 -4 9
-8 -2 -4 5 -7 17 -6 25 2 82 64 73 79 -4 6 -3 8 4 5 5 -4 28 15 51 41 32 39
39 55 36 80 -3 20 2 35 12 44 14 11 15 11 7 -2 -5 -8 -9 -25 -9 -37 -1 -21 0
-21 17 -6 10 9 16 23 14 30 -3 7 6 25 20 40 14 16 22 22 18 14 -15 -29 13 -1
45 46 19 26 28 43 21 36 -7 -6 -19 -9 -28 -6 -9 4 -13 2 -9 -4 5 -7 0 -9 -13
-6 -22 6 -27 28 -9 39 8 5 8 9 -1 14 -7 4 5 7 26 5 55 -4 56 -4 49 -15 -3 -6
-4 -10 -1 -10 11 0 87 121 81 129 -3 6 0 13 6 17 8 4 9 3 5 -4 -4 -7 -5 -12
-2 -12 10 0 40 65 37 79 -1 8 2 10 9 6 7 -4 4 4 -5 19 -10 14 -15 27 -11 27 3
1 11 2 17 3 5 0 19 12 31 26 13 16 18 19 14 8 -11 -35 3 -17 43 56 46 83 48
88 24 80 -15 -5 -15 -4 -3 4 8 6 17 9 22 6 8 -5 30 35 83 152 19 41 29 72 22
69 -7 -4 -4 0 6 8 19 16 138 306 141 342 0 13 4 21 7 19 7 -4 41 107 35 114
-2 2 -16 -9 -30 -25 -19 -20 -26 -23 -26 -12 0 9 16 24 35 35 25 13 35 24 31
37 -2 9 -1 15 4 12 13 -8 92 315 124 510 20 119 46 339 46 392 0 42 0 42 -26
28 -18 -9 -35 -10 -57 -4 -18 5 -33 9 -34 9 -1 0 2 -11 7 -25 16 -41 -22 -115
-59 -115 -26 0 -155 135 -148 154 8 21 26 20 49 -1 17 -15 19 -15 38 2 14 13
30 16 59 12 38 -5 39 -4 31 19 -16 42 16 94 57 94 61 0 82 -41 38 -74 -14 -10
-25 -23 -25 -27 0 -18 29 -8 48 16 11 13 22 21 26 18 3 -3 6 24 6 60 0 51 -3
67 -14 67 -31 0 -35 71 -6 100 23 23 24 47 13 216 -7 96 -9 103 -14 59 -4 -32
-5 -20 -3 35 2 46 -3 136 -12 200 -32 247 -134 681 -168 716 -8 8 -18 23 -21
34 -4 11 -11 18 -16 15 -5 -3 -6 0 -4 7 3 8 -8 40 -25 73 -27 54 -29 61 -15
71 15 11 11 24 -30 125 -26 63 -50 116 -53 119 -4 3 -8 10 -9 15 -1 6 -17 46
-37 88 -25 55 -39 75 -49 71 -8 -3 -18 0 -22 6 -4 6 -1 9 7 8 7 -2 13 4 13 12
0 8 -6 14 -13 12 -8 -1 -11 2 -7 8 4 6 -14 49 -40 95 -42 78 -63 108 -49 70 4
-10 2 -13 -8 -10 -7 3 -14 15 -15 25 -1 12 3 18 9 14 6 -4 5 3 -2 16 -11 20
-25 20 -25 -1 0 -5 -4 -9 -10 -8 -5 0 -9 8 -7 17 2 14 0 14 -13 -2 -16 -21
-21 -11 -6 13 5 7 13 11 19 7 6 -3 13 -2 16 2 6 10 -43 37 -58 33 -5 -1 -4 4
3 13 8 10 9 16 1 21 -5 3 -10 12 -10 18 0 7 7 3 15 -7 8 -10 12 -23 8 -29 -3
-6 -1 -7 6 -3 6 4 8 13 4 19 -23 40 -104 157 -109 157 -3 0 -2 -4 1 -10 7 -11
6 -11 -49 -15 -21 -2 -33 1 -26 5 9 5 9 9 1 14 -6 4 -11 14 -11 22 0 18 31 15
38 -4 2 -8 -2 -10 -14 -5 -16 6 -17 5 -4 -9 19 -21 47 -3 29 18 -14 17 2 18
21 2 12 -11 12 -10 0 5 -7 10 -19 16 -27 13 -7 -3 -13 1 -13 10 0 9 5 12 12 8
17 -11 -44 72 -130 177 -52 63 -79 89 -89 84 -12 -4 -13 -2 -5 8 9 10 2 22
-30 53 -22 21 -38 34 -35 29 3 -6 -2 -16 -12 -22 -14 -9 -18 -8 -18 3 0 7 4
11 8 9 3 -3 9 4 12 14 3 13 -9 32 -39 62 -24 24 -44 38 -44 32 0 -6 5 -13 10
-15 7 -2 5 -11 -4 -23 -15 -20 -15 -19 -16 5 0 14 -1 33 -2 43 -1 10 -55 69
-121 131 -88 84 -124 112 -139 108 -22 -5 -20 -10 9 -15 38 -5 71 -44 38 -44
-8 0 -13 3 -10 5 8 8 -34 34 -44 28 -11 -7 -20 14 -14 32 3 6 10 10 16 6 15
-7 -55 57 -104 96 -33 27 -37 28 -52 13 -27 -28 -85 -22 -113 11 -25 28 -32
74 -13 93 7 7 1 17 -21 33 l-32 23 11 -22 c13 -23 7 -41 -12 -41 -8 0 -8 3 1
9 18 11 -7 61 -42 85 -31 20 -37 20 -30 1 4 -8 14 -15 24 -15 22 0 35 -16 20
-25 -5 -3 -10 -1 -10 4 0 6 -7 11 -16 11 -8 0 -12 -4 -9 -10 3 -5 1 -10 -4
-10 -12 0 -12 2 -15 42 -1 28 -8 34 -80 78 -24 14 -36 18 -31 9 4 -8 5 -11 0
-7 -4 4 -17 3 -28 -3 -12 -7 -17 -7 -13 -1 3 6 1 12 -6 14 -7 3 -5 7 6 11 10
4 15 3 11 -3 -3 -6 -1 -10 4 -10 19 0 12 19 -10 31 -12 6 -19 7 -16 2 3 -5 -4
-10 -16 -10 -17 -2 -19 0 -7 7 18 11 11 18 -60 57 -59 33 -91 35 -68 5 12 -15
11 -16 -5 -3 -12 10 -15 17 -8 24 7 7 1 16 -19 29 -37 22 -52 23 -25 1 14 -11
15 -14 4 -10 -9 3 -22 0 -29 -6 -10 -9 -12 -8 -7 6 4 12 1 17 -11 18 -14 0
-14 2 3 9 16 6 2 16 -80 55 -220 103 -442 188 -462 176 -13 -7 -13 -9 1 -14
10 -4 15 -3 11 3 -8 14 3 12 49 -9 32 -14 36 -19 22 -24 -10 -4 -15 -3 -11 3
3 6 -2 11 -12 11 -10 1 -31 3 -46 5 -23 2 -26 0 -17 -11 9 -11 7 -13 -7 -10
-10 2 -24 4 -30 4 -7 1 -13 8 -13 16 0 8 -8 15 -18 15 -11 0 -18 8 -19 20 -2
20 -1 20 26 -2 16 -13 26 -26 24 -30 -5 -10 11 -10 20 -1 4 3 2 12 -4 20 -9
10 -7 13 7 14 30 1 -148 56 -322 99 -106 26 -173 38 -195 34 -19 -3 -45 -7
-59 -10 -19 -4 -22 -2 -10 6 8 5 29 10 45 11 25 1 22 3 -15 10 -25 5 -53 8
-62 5 -9 -2 -18 0 -20 4 -6 17 -431 60 -589 60 -52 0 -79 -4 -81 -12 -3 -8
-22 -12 -48 -12 -37 1 -41 0 -27 -11 21 -15 22 -29 1 -46 -14 -11 -22 -7 -61
34 -24 26 -51 47 -59 47 -14 0 -13 -2 0 -16 15 -14 14 -17 -6 -34 -19 -15 -21
-22 -12 -37 15 -25 42 -28 64 -8 22 19 40 12 40 -15 0 -36 -87 -69 -105 -40
-14 22 -23 8 -12 -20 36 -95 -89 -148 -137 -58 -17 31 -18 39 -7 66 16 37 68
60 100 43 18 -10 19 -9 14 25 -4 27 -1 42 16 65 12 16 18 28 14 28 -4 -1 -51
-5 -103 -10z m-185 -282 c-38 -32 -26 -50 23 -33 87 31 133 -44 70 -111 -18
-19 -68 -33 -68 -19 0 2 -3 11 -6 20 -4 10 -1 16 7 16 17 0 49 30 49 46 0 10
-10 10 -49 -1 -63 -16 -91 -1 -91 50 0 26 7 39 32 59 28 22 35 23 47 11 12
-12 10 -17 -14 -38z m1697 -59 l3 -43 48 -3 c28 -2 47 -8 47 -15 0 -21 -36
-36 -71 -30 -34 5 -34 5 -15 -16 15 -17 16 -23 6 -36 -7 -8 -15 -15 -19 -15
-9 0 -151 141 -151 150 0 4 7 13 15 20 13 11 20 9 43 -11 15 -13 31 -30 35
-36 14 -23 24 -14 19 17 -4 29 11 60 29 60 4 0 9 -19 11 -42z m-1760 -105 c18
-16 17 -18 -14 -50 -40 -41 -29 -57 13 -17 25 24 31 26 39 14 13 -21 13 -24
-11 -54 -31 -39 -88 -37 -123 5 -14 17 -26 37 -26 45 0 19 19 57 34 66 20 14
69 8 88 -9z m1613 -116 c29 -41 17 -90 -26 -113 -25 -12 -33 -13 -63 0 -46 19
-66 74 -41 112 31 48 97 48 130 1z m-1854 11 c18 -20 20 -21 39 -3 25 23 73
24 95 2 42 -43 32 -125 -19 -148 -22 -10 -30 -6 -101 63 -72 70 -76 76 -60 91
21 22 24 21 46 -5z m25 -122 c53 -45 25 -136 -41 -136 -13 0 -37 12 -54 26
-38 32 -42 76 -9 111 28 30 69 30 104 -1z m1570 3 c3 -6 -5 -21 -20 -34 -33
-28 -35 -50 -3 -40 12 4 38 9 59 12 31 4 39 1 54 -22 16 -24 16 -29 2 -58 -17
-36 -58 -63 -82 -54 -25 10 -19 31 14 45 30 14 41 42 16 42 -7 0 -27 -5 -45
-11 -68 -24 -110 53 -59 108 23 25 52 30 64 12z m-1637 -155 c19 12 -2 -36
-29 -64 -36 -38 -81 -40 -115 -5 -30 29 -33 79 -8 107 16 18 15 19 -5 34 -26
18 -27 27 -5 49 15 16 21 12 84 -55 38 -39 73 -69 78 -66z m3321 -122 c0 -22
-60 -72 -87 -72 -31 0 -83 51 -83 82 0 13 7 34 16 46 15 22 15 25 -5 46 -20
21 -20 23 -4 39 16 16 22 13 90 -55 40 -40 73 -79 73 -86z m-3505 50 c94 -47
96 -48 76 -66 -16 -14 -23 -15 -41 -6 -18 10 -24 8 -41 -11 -22 -26 -22 -25
-9 -48 7 -14 5 -23 -10 -36 -19 -17 -20 -16 -50 50 -16 37 -30 70 -30 74 0 5
-9 16 -20 26 l-20 18 22 24 c12 13 23 23 24 23 2 0 46 -22 99 -48z m1734 32
l23 -16 -33 -34 c-33 -34 -35 -50 -6 -38 9 3 19 15 22 25 8 23 24 21 39 -5 9
-14 6 -22 -17 -42 -30 -26 -74 -31 -110 -13 -18 9 -20 9 -9 -2 21 -23 15 -83
-13 -113 -13 -14 -30 -26 -37 -26 -7 0 -45 32 -85 72 -68 68 -72 73 -56 90 16
18 17 18 40 -3 22 -21 24 -22 42 -5 22 20 55 24 85 11 16 -7 17 -6 7 13 -16
30 -14 46 10 76 24 30 63 34 98 10z m1586 -129 c52 -25 95 -48 95 -51 0 -16
-27 -30 -45 -23 -29 11 -30 11 -56 -11 -19 -18 -21 -24 -11 -40 6 -11 9 -26 6
-35 -8 -19 -44 -20 -44 -1 0 8 -18 49 -39 92 -37 73 -39 80 -24 96 9 10 18 18
20 18 2 0 46 -20 98 -45z m-1807 -91 c32 -22 44 -58 31 -91 -21 -57 -77 -69
-122 -28 -28 27 -34 56 -18 99 14 36 71 47 109 20z m-129 -105 c39 -40 71 -75
71 -79 0 -4 -13 -22 -29 -39 -35 -37 -76 -41 -116 -9 -24 19 -27 26 -22 66 3
24 11 48 18 53 10 6 8 12 -10 28 -20 17 -22 23 -11 36 7 8 16 15 20 15 4 0 39
-32 79 -71z m-33 -192 c-10 -17 -21 -18 -57 -3 -24 10 -53 -38 -39 -63 7 -15
6 -23 -6 -35 -8 -9 -17 -16 -20 -16 -2 0 -25 44 -51 97 l-46 96 21 18 c21 16
25 15 115 -29 83 -42 93 -49 83 -65z m-2006 -152 l0 -45 50 0 c37 0 50 -4 50
-15 0 -21 -37 -37 -71 -30 -32 7 -37 0 -15 -24 12 -13 12 -19 2 -33 -12 -16
-21 -10 -94 62 -73 71 -80 81 -66 95 22 21 28 19 61 -20 17 -19 33 -35 37 -35
3 0 6 15 6 33 0 31 14 57 32 57 4 0 8 -20 8 -45z m3320 -100 l0 -45 55 0 c30
0 55 -2 55 -5 0 -3 -8 -15 -19 -26 -15 -16 -26 -19 -57 -14 -35 6 -37 5 -21
-8 22 -18 22 -43 0 -51 -12 -5 -38 14 -92 68 -72 72 -75 77 -58 93 16 16 19
15 57 -22 l40 -39 0 35 c0 33 14 59 32 59 4 0 8 -20 8 -45z m-1550 -5 c34 -34
48 -40 61 -27 12 11 13 -2 11 -90 -4 -116 0 -142 22 -124 10 9 16 9 21 1 5 -7
115 -10 355 -10 347 1 370 0 404 -33 7 -6 10 -65 8 -168 l-3 -158 24 5 c19 3
32 -5 56 -31 33 -38 34 -65 4 -113 -18 -30 -36 -36 -62 -22 l-21 11 0 -761 c0
-676 2 -763 16 -777 8 -9 13 -22 9 -31 -8 -22 24 -52 57 -52 25 0 29 -4 26
-22 -2 -14 -14 -26 -30 -32 -23 -8 -31 -6 -49 13 -23 24 -40 21 -19 -4 8 -10
10 -27 5 -52 -5 -21 -10 -356 -12 -745 -2 -541 0 -708 9 -708 6 0 20 -7 30
-17 17 -15 19 -15 36 0 21 20 54 22 84 6 19 -10 20 -9 13 7 -17 41 -16 60 5
87 24 30 63 35 93 13 24 -18 21 -40 -8 -62 -28 -21 -32 -34 -11 -34 7 0 21 12
31 26 13 20 19 23 31 13 20 -16 18 -32 -8 -56 -30 -27 -60 -36 -89 -24 -23 8
-24 7 -21 -34 3 -37 -1 -48 -27 -76 l-32 -33 -69 69 -70 69 0 -31 c0 -27 5
-33 35 -43 39 -13 67 -55 62 -91 -5 -28 -42 -59 -73 -59 l-24 0 2 -377 c2
-280 6 -378 15 -378 6 0 15 -4 20 -9 5 -5 3 -6 -4 -2 -7 4 -13 3 -13 -1 0 -5
6 -15 13 -22 7 -9 7 -11 1 -8 -7 4 -15 0 -18 -9 -5 -12 -2 -15 11 -10 14 6 15
5 6 -5 -9 -9 -15 -9 -27 0 -11 9 -15 9 -19 -1 -4 -10 -6 -10 -6 -1 -1 7 8 18
18 25 10 6 17 17 14 24 -3 7 -14 2 -31 -15 -15 -14 -24 -28 -20 -31 3 -3 -177
-4 -400 -2 l-406 3 19 -21 c17 -19 18 -22 2 -37 -16 -16 -19 -15 -55 20 -43
42 -52 44 -76 18 -21 -23 -18 -49 6 -65 13 -8 22 -5 41 12 21 20 25 21 37 7
16 -19 8 -39 -24 -61 -31 -19 -67 -13 -97 17 -16 16 -20 31 -17 65 l3 44
-1211 -2 c-667 -2 -1208 0 -1202 3 5 3 0 9 -12 12 -12 3 -24 15 -27 26 -3 12
-8 21 -12 21 -3 0 -5 157 -3 350 2 304 1 350 -12 350 -9 0 -24 -10 -35 -21
-15 -17 -17 -25 -9 -39 13 -21 4 -50 -15 -50 -17 0 -99 174 -91 194 11 27 37
26 98 -4 57 -27 82 -26 58 3 -17 20 -17 50 -3 86 13 30 13 35 -2 46 -21 15
-22 29 -2 45 13 11 15 103 15 722 0 698 0 709 -19 698 -31 -16 -51 -12 -82 19
-34 35 -37 68 -8 105 25 32 57 33 88 5 l23 -22 -6 64 c-3 35 -5 73 -5 84 1 11
3 340 5 731 l4 710 -35 -4 c-50 -6 -85 27 -85 79 0 21 7 42 15 49 14 12 13 15
-5 35 -21 22 -19 55 3 55 6 0 32 -20 57 -45 l45 -44 3 217 c2 119 6 225 9 236
4 13 2 16 -7 11 -9 -5 -11 -4 -6 4 4 6 10 10 14 7 4 -2 18 8 32 22 14 14 17
20 8 13 -10 -8 -18 -11 -18 -7 0 3 -1 9 -2 13 -2 3 7 8 20 9 12 2 22 -1 22 -6
0 -6 52 -10 133 -10 122 0 136 2 152 20 22 25 61 23 59 -3 -1 -11 5 -17 18
-17 17 0 18 2 8 15 -7 9 -10 18 -7 22 4 3 2 12 -3 18 -6 7 -8 20 -4 29 7 18
29 21 39 6 4 -6 15 -8 25 -5 19 6 35 -19 24 -37 -3 -5 3 -18 15 -29 20 -18 34
-20 165 -18 l144 2 1 101 c2 72 6 105 17 117 8 8 11 18 8 22 -4 3 373 7 836 7
464 0 845 2 847 4 5 5 37 2 43 -4z m1886 -23 c-6 -6 -3 -6 8 -3 98 32 183 30
278 -9 32 -12 55 -19 52 -14 -3 5 -1 9 4 9 5 0 12 -10 15 -22 4 -12 9 -19 13
-16 3 4 17 -6 31 -23 14 -16 30 -26 36 -22 7 3 9 3 5 -2 -9 -9 29 -60 45 -60
5 0 12 -6 15 -14 3 -8 0 -11 -5 -8 -6 4 1 -21 15 -56 24 -57 26 -76 30 -246 2
-101 8 -178 12 -171 5 8 13 9 21 4 8 -5 23 -9 34 -9 15 0 20 -6 19 -25 -1 -28
31 -59 63 -60 31 0 37 -16 13 -40 -26 -26 -33 -25 -72 9 -18 16 -42 30 -53 32
-10 2 -22 15 -26 29 -6 20 -7 17 -8 -17 -1 -41 0 -43 29 -43 37 0 64 -36 54
-74 -7 -29 -61 -79 -75 -70 -5 3 -9 -302 -9 -765 l0 -770 25 24 c33 34 70 32
107 -5 25 -26 29 -36 24 -63 -15 -77 -104 -91 -144 -22 -11 20 -11 20 -12 -1
0 -12 13 -31 30 -44 17 -13 30 -29 30 -35 0 -7 -13 -27 -30 -45 l-30 -32 0
-700 0 -699 24 25 c26 29 39 32 55 13 8 -11 5 -19 -14 -35 -43 -37 -33 -51 24
-31 92 32 134 -62 53 -119 -26 -19 -31 -20 -48 -7 -18 13 -17 15 16 43 40 35
35 49 -11 33 -44 -15 -65 -14 -83 5 -15 14 -16 8 -15 -71 1 -47 5 -81 10 -74
9 16 39 4 39 -15 0 -9 -14 -26 -31 -38 -37 -27 -113 -153 -103 -170 5 -7 3 -8
-6 -3 -10 6 -12 4 -7 -9 4 -10 3 -15 -3 -11 -12 7 -33 -32 -24 -47 4 -6 3 -8
-4 -4 -10 6 -28 -30 -24 -47 1 -5 -2 -6 -7 -3 -18 12 -23 -44 -6 -85 3 -9 -1
-22 -11 -30 -12 -9 -15 -10 -10 -1 4 7 1 15 -8 18 -9 3 -13 10 -10 16 3 5 13
1 21 -9 14 -17 14 -17 7 2 -3 11 -6 28 -6 38 0 9 -1 17 -3 17 -2 0 -22 -35
-46 -77 -23 -43 -49 -89 -57 -103 l-14 -25 21 25 c11 14 21 21 22 15 1 -5 3
-21 4 -34 1 -13 8 -27 15 -31 8 -5 7 -9 -6 -14 -9 -3 -19 -4 -22 -1 -3 3 0 5
7 5 8 0 9 6 3 18 -5 9 -7 24 -4 32 2 8 2 12 -2 8 -7 -5 -13 -27 -15 -50 -1 -5
-8 -8 -16 -8 -8 0 -16 -7 -16 -15 -1 -8 -3 -19 -4 -25 -1 -5 -3 -14 -4 -20 0
-5 -8 -7 -16 -4 -8 4 -12 11 -8 18 3 6 -4 2 -18 -9 -13 -11 -26 -22 -29 -24
-3 -2 4 -1 15 3 11 3 26 2 33 -2 6 -5 -20 -8 -60 -8 -55 1 -72 5 -75 16 -3 9
-1 11 4 5 4 -5 18 -11 30 -13 20 -3 19 0 -10 31 -18 18 -52 70 -76 115 -24 45
-48 79 -54 75 -5 -3 -7 -1 -4 5 10 15 -3 43 -16 35 -5 -3 -7 -1 -3 5 3 6 -3
27 -15 46 -23 40 -37 49 -18 14 9 -18 9 -21 -1 -11 -7 6 -14 22 -15 36 -3 25
-32 87 -41 87 -2 0 -1 -8 4 -17 10 -19 6 -43 -7 -43 -5 0 -7 17 -5 38 2 25 -4
49 -17 68 -10 16 -19 25 -19 20 0 -5 -6 -3 -14 3 -11 10 -17 8 -26 -6 -11 -17
-11 -17 -6 0 3 10 6 24 6 30 0 8 4 7 12 -1 19 -19 30 -14 18 8 -9 16 -17 19
-43 15 -17 -4 -29 -5 -27 -3 3 2 14 10 24 18 16 12 18 12 11 1 -5 -10 -4 -12
3 -7 12 7 4 33 -20 63 -5 6 -9 201 -8 450 0 241 -4 433 -8 426 -12 -18 -55
-31 -77 -23 -26 10 -56 43 -59 67 -6 34 36 95 60 86 18 -7 18 -22 -2 -44 -35
-39 16 -84 54 -48 11 10 23 15 26 12 3 -4 6 1 6 9 0 9 -29 43 -65 76 -65 59
-65 59 -44 78 20 18 21 18 59 -24 22 -23 41 -42 44 -42 3 0 5 676 6 1503 1
1622 -2 1553 53 1652 17 29 22 47 15 51 -6 4 -8 2 -5 -4 5 -6 -1 -8 -14 -5
-19 5 -19 7 -5 15 9 5 21 6 27 3 5 -4 32 14 59 39 27 25 65 53 84 63 34 16 56
43 35 43 -6 0 -7 4 -4 10 4 6 11 5 19 -3 10 -9 11 -14 2 -20z m-3812 -88 c14
-17 26 -41 26 -54 0 -32 -30 -64 -67 -71 -27 -5 -37 -1 -63 24 -36 37 -39 76
-8 109 32 34 79 31 112 -8z m3321 -95 c40 -43 29 -105 -21 -125 -47 -17 -114
33 -114 85 0 7 9 25 21 40 28 36 81 36 114 0z m-249 -115 c3 -6 -6 -22 -21
-36 -30 -29 -21 -53 13 -34 35 19 79 13 96 -11 23 -33 20 -50 -16 -92 -32 -35
-34 -36 -55 -21 -29 21 -29 31 1 39 23 6 42 33 31 44 -3 3 -23 0 -46 -7 -52
-16 -89 4 -89 48 0 53 64 105 86 70z m461 -2171 c-1 -392 -2 -72 -2 712 0 784
1 1104 2 713 2 -392 2 -1034 0 -1425z m1215 2074 c-2 -23 0 -42 5 -41 28 5 93
-3 93 -11 0 -5 -7 -18 -17 -29 -13 -15 -21 -17 -41 -10 -30 12 -39 5 -22 -16
11 -13 11 -19 -3 -32 -15 -16 -21 -13 -74 38 -32 30 -67 65 -77 77 -17 22 -17
25 -2 40 15 15 19 13 56 -23 l40 -39 0 31 c0 44 10 65 29 61 12 -2 15 -13 13
-46z m-105 -73 c9 -9 6 -19 -9 -40 -18 -23 -19 -31 -8 -44 17 -20 50 -19 66 3
12 16 14 16 30 0 17 -16 16 -19 -10 -43 -28 -26 -64 -32 -96 -15 -17 9 -17 7
-7 -20 34 -90 -84 -148 -134 -66 -25 40 -24 59 4 91 23 27 47 33 82 22 19 -6
20 -3 17 31 -3 27 2 45 18 65 24 30 31 32 47 16z m-1666 -19 c26 -14 24 -32
-6 -60 -14 -13 -25 -27 -25 -32 0 -16 20 -8 42 17 16 19 24 22 35 14 19 -16
16 -27 -12 -54 -36 -37 -86 -34 -119 6 -31 37 -33 58 -5 93 22 28 56 34 90 16z
m-3782 -360 c44 -22 85 -40 91 -40 6 0 6 -7 -2 -20 -10 -15 -20 -19 -43 -15
-44 8 -60 -7 -60 -57 0 -71 -25 -60 -64 29 -19 43 -40 84 -48 91 -12 12 -11
17 4 33 25 25 32 24 122 -21z m-651 -636 c0 -19 2 -37 4 -40 3 -2 24 -5 47 -6
47 -2 59 -12 40 -35 -10 -11 -25 -14 -55 -10 -42 4 -42 4 -23 -16 14 -15 16
-24 8 -34 -19 -22 -32 -15 -108 61 -67 68 -71 74 -56 90 9 9 18 16 20 16 2 0
22 -19 45 -42 l42 -43 -5 37 c-4 26 -1 43 9 53 22 21 32 11 32 -31z m6642
-199 l0 -45 50 0 c36 0 50 -4 50 -14 0 -25 -27 -38 -67 -30 l-38 7 19 -21 c19
-22 16 -52 -6 -52 -8 0 -47 33 -87 74 -64 64 -73 77 -61 90 18 23 27 20 63
-19 17 -19 34 -35 37 -35 3 0 4 16 2 36 -3 24 0 39 9 45 25 15 29 10 29 -36z
m-6799 -14 c16 -16 29 -37 29 -46 0 -30 -30 -75 -54 -81 -82 -20 -144 85 -80
135 37 29 70 26 105 -8z m-252 -115 c9 -11 6 -18 -14 -34 -24 -19 -33 -42 -16
-42 4 0 22 5 40 11 41 14 75 5 88 -24 14 -29 -5 -73 -43 -101 -24 -17 -27 -17
-42 -2 -15 15 -14 18 18 45 19 16 32 32 28 36 -4 4 -29 1 -57 -6 -46 -12 -52
-11 -72 6 -25 24 -20 69 14 102 26 26 40 28 56 9z m6909 -94 c6 -9 12 -30 12
-47 0 -80 -109 -95 -144 -20 -44 91 67 148 132 67z m-1908 -102 l0 -40 43 0
c58 0 73 -11 47 -35 -14 -13 -29 -16 -55 -12 -39 6 -42 3 -20 -19 15 -16 10
-44 -9 -44 -14 1 -156 134 -156 147 0 6 7 16 15 23 12 10 21 4 54 -32 l41 -43
0 41 c0 43 5 54 27 54 9 0 13 -13 13 -40z m-5089 1 l24 -20 -34 -35 c-38 -39
-23 -51 16 -14 22 20 25 21 40 5 16 -15 15 -18 -7 -42 -13 -13 -39 -28 -58
-31 -31 -6 -39 -3 -64 25 -51 57 -28 127 43 130 9 1 27 -8 40 -18z m6716 -37
c-32 -30 -28 -48 9 -34 59 23 114 1 114 -46 0 -28 -46 -84 -70 -84 -16 0 -48
27 -39 33 2 1 16 9 32 17 27 13 37 40 16 40 -7 0 -29 -5 -50 -12 -34 -10 -42
-9 -59 7 -32 29 -26 78 12 110 28 24 32 25 47 11 14 -15 13 -19 -12 -42z
m-1740 -72 c-23 -25 -21 -49 4 -63 17 -9 25 -7 42 9 41 37 63 6 27 -37 -16
-19 -27 -22 -60 -19 l-40 3 6 -37 c5 -30 2 -41 -19 -62 -35 -35 -71 -33 -108
3 -56 56 -25 131 53 131 12 0 30 -7 40 -17 10 -9 18 -11 18 -5 0 6 -4 14 -10
17 -19 12 -11 78 12 102 19 21 24 22 37 9 13 -14 13 -18 -2 -34z m-5213 3 c3
-8 12 -15 19 -15 8 0 20 7 27 15 19 23 64 18 95 -11 24 -22 27 -31 22 -66 -6
-45 -48 -95 -70 -81 -28 17 -147 138 -147 149 0 24 45 31 54 9z m6879 -89 c23
-18 22 -26 -8 -58 -29 -31 -31 -38 -11 -38 7 0 21 11 30 25 18 27 46 24 46 -5
0 -26 -47 -60 -83 -60 -64 0 -103 85 -60 132 19 21 60 23 86 4z m-6845 -38
c26 -25 29 -73 6 -106 -11 -16 -25 -22 -53 -22 -44 0 -75 28 -85 76 -6 27 -3
35 25 58 37 31 68 29 107 -6z m6754 -80 c24 -36 29 -52 23 -77 -6 -28 -46 -71
-65 -71 -5 0 -42 31 -81 70 -48 46 -69 74 -66 85 8 20 26 19 49 -2 13 -11 22
-14 26 -7 22 33 92 34 114 2z m-5518 -213 c3 -8 12 -15 19 -15 8 0 20 7 27 15
25 31 92 9 110 -36 21 -49 -3 -105 -51 -122 -11 -3 -40 18 -89 68 -63 63 -72
76 -60 89 16 20 36 20 44 1z m34 -128 c44 -40 19 -122 -39 -129 -73 -8 -122
75 -77 129 30 37 76 37 116 0z m-142 -94 c58 -60 64 -71 57 -93 -5 -14 -25
-34 -44 -44 -36 -19 -36 -19 -69 0 -45 26 -56 63 -34 109 16 34 16 36 -1 49
-21 15 -14 46 10 46 9 0 45 -30 81 -67z m6792 -109 c29 -33 28 -69 -3 -99 -32
-33 -75 -33 -109 1 -43 44 -32 106 24 127 26 10 64 -3 88 -29z m-6898 -23 c41
-20 76 -37 78 -38 2 0 -2 -10 -9 -21 -10 -16 -18 -18 -36 -11 -43 16 -72 -16
-58 -62 6 -19 -6 -38 -25 -39 -3 0 -16 24 -30 53 -13 28 -35 69 -48 90 -22 37
-23 40 -6 58 21 23 31 21 134 -30z m6749 -62 c39 -38 71 -75 71 -81 0 -23 -60
-68 -90 -68 -63 0 -101 75 -65 127 13 18 12 23 -5 43 -15 18 -17 26 -9 37 6 7
15 13 19 13 5 0 40 -32 79 -71z m-115 -130 c47 -23 86 -48 86 -55 0 -17 -38
-28 -54 -15 -20 17 -61 -31 -48 -56 7 -13 6 -24 -4 -37 -7 -11 -16 -18 -18
-15 -3 2 -25 46 -51 97 -38 77 -44 94 -33 107 19 21 28 19 122 -26z m-7303
-421 c1 -18 1 -38 0 -45 -1 -7 21 -14 54 -18 59 -8 62 -10 42 -29 -19 -20 -39
-24 -71 -15 l-29 8 22 -23 c20 -22 21 -23 4 -39 -17 -15 -23 -11 -96 60 -61
60 -75 79 -66 89 17 20 35 17 56 -8 10 -13 27 -30 37 -38 18 -14 19 -13 13 18
-6 31 8 72 25 72 5 0 9 -15 9 -32z m5210 9 c21 -16 39 -51 39 -77 0 -29 -44
-70 -75 -70 -32 0 -85 50 -85 79 0 30 21 69 39 74 31 9 66 6 82 -6z m-5312
-111 c9 -10 8 -16 -4 -26 -19 -16 -19 -44 0 -60 15 -12 26 -10 57 12 25 18 44
-2 29 -30 -16 -30 -66 -47 -97 -33 -32 14 -41 14 -26 -1 7 -7 12 -29 12 -49 0
-44 -27 -69 -72 -69 -33 0 -86 47 -80 72 2 9 -2 27 -8 39 -8 14 -8 19 -1 15 6
-4 24 3 40 15 28 21 40 21 86 4 16 -7 18 -6 8 6 -20 21 -15 70 9 96 25 27 31
28 47 9z m5079 -29 c2 -9 -3 -17 -10 -17 -14 0 -43 -39 -34 -47 3 -3 19 0 37
6 70 24 117 -1 104 -57 -10 -48 -71 -92 -94 -69 -18 18 -13 32 19 44 36 14 43
49 8 40 -75 -19 -79 -19 -98 -2 -28 25 -25 69 6 100 28 29 57 30 62 2z m1672
-88 l0 -39 50 0 c37 0 50 -4 50 -15 0 -20 -37 -38 -71 -33 -33 5 -35 2 -13
-24 16 -17 14 -20 -27 -63 -40 -42 -48 -46 -85 -43 l-41 3 4 -37 c5 -30 1 -41
-20 -62 -35 -35 -71 -33 -108 3 -34 35 -37 68 -8 105 24 31 72 35 102 9 19
-17 20 -17 8 4 -17 33 -13 77 10 107 17 21 24 24 35 15 18 -15 18 -35 -1 -43
-19 -7 -19 -30 1 -50 20 -21 31 -20 51 4 13 15 20 17 30 8 7 -6 17 -8 21 -4 4
4 -26 39 -65 77 -40 38 -73 73 -73 78 0 5 7 14 15 21 11 10 20 5 46 -24 39
-45 49 -45 49 -3 0 34 17 60 32 51 4 -3 8 -23 8 -45z m-6210 -1088 l0 -40 55
-6 c30 -4 55 -10 55 -14 0 -18 -28 -31 -64 -31 -39 0 -39 0 -20 -21 18 -20 18
-21 0 -35 -18 -13 -26 -8 -95 59 -42 39 -77 75 -79 78 -1 3 6 13 16 22 18 17
21 15 62 -30 l43 -48 -5 42 c-5 38 4 63 24 63 4 0 8 -18 8 -39z m3172 -311
c25 -26 29 -36 24 -63 -19 -101 -157 -78 -156 26 0 27 9 40 35 55 34 19 65 13
97 -18z m-1879 -154 c12 -3 37 -6 55 -6 33 0 38 -5 23 -29 -6 -9 -24 -14 -51
-13 -40 2 -41 1 -26 -19 12 -18 13 -24 1 -35 -7 -8 -15 -14 -18 -14 -2 0 -39
34 -82 75 -65 63 -75 77 -65 90 19 23 35 18 67 -20 37 -43 47 -44 39 -4 -4 21
0 38 12 54 l17 23 3 -48 c2 -40 7 -49 25 -54z m1625 42 c9 -9 6 -18 -15 -40
-33 -34 -26 -44 22 -28 49 16 83 6 92 -28 10 -37 5 -53 -25 -84 -31 -33 -43
-35 -67 -8 -14 16 -15 20 -3 20 17 0 58 36 58 52 0 6 -9 8 -22 4 -65 -19 -86
-18 -107 3 -29 29 -26 57 8 92 33 32 41 35 59 17z m1682 -99 c0 -36 2 -39 28
-40 15 -1 37 -4 50 -7 21 -6 22 -9 9 -27 -11 -14 -25 -19 -53 -17 -37 3 -38 3
-20 -17 17 -19 17 -21 2 -36 -15 -16 -22 -11 -91 56 -76 73 -88 95 -59 106 10
4 30 -8 55 -33 l40 -39 -3 37 c-2 36 17 72 33 62 5 -3 9 -23 9 -45z m-3431 17
c9 -10 8 -16 -4 -26 -8 -7 -15 -23 -15 -36 0 -30 35 -42 59 -20 35 32 63 10
37 -29 -20 -31 -75 -47 -94 -28 -22 21 -34 15 -19 -9 20 -32 4 -84 -31 -102
-50 -26 -115 17 -115 75 0 55 52 85 111 65 22 -7 23 -6 13 12 -16 31 -13 56
10 86 23 30 32 32 48 12z m1669 -118 c18 -15 15 -23 -19 -57 -28 -28 -29 -31
-10 -31 12 0 26 9 33 20 15 24 34 26 42 4 8 -22 -49 -74 -81 -74 -57 0 -104
89 -70 132 21 28 73 30 105 6z m1595 -102 c57 -53 37 -128 -35 -134 -45 -4
-77 22 -84 70 -5 30 -2 41 19 62 33 32 66 33 100 2z m-1838 -6 c17 -19 18 -19
43 0 33 27 62 25 95 -5 44 -42 32 -116 -24 -146 -17 -9 -30 -1 -96 65 -66 64
-75 77 -64 90 17 21 24 20 46 -4z m-1721 -26 c3 -8 -1 -14 -9 -14 -14 0 -35
-29 -35 -48 0 -6 20 -4 47 4 41 12 49 12 70 -1 33 -22 30 -66 -7 -106 -27 -30
-31 -32 -55 -19 -27 14 -33 30 -12 30 6 1 23 10 36 21 30 24 16 48 -17 30 -34
-18 -90 -14 -102 8 -17 33 -11 61 19 92 30 29 54 31 65 3z m1753 -96 c30 -33
33 -62 12 -97 -28 -46 -79 -46 -122 1 -31 33 -31 66 0 101 24 25 84 23 110 -5z
m1563 7 c10 -12 7 -19 -17 -39 -34 -30 -24 -44 20 -28 46 17 61 15 82 -8 26
-28 22 -67 -11 -101 -32 -34 -45 -36 -67 -11 -15 16 -14 18 13 30 27 12 46 39
35 50 -3 3 -20 0 -38 -6 -45 -16 -73 -15 -91 4 -25 24 -19 62 13 95 33 33 43
35 61 14z m-1703 -101 l74 -76 -25 -33 c-44 -58 -122 -49 -145 16 -9 27 -8 37
8 64 18 32 18 33 0 46 -11 7 -19 18 -19 24 0 11 20 35 29 35 3 0 38 -34 78
-76z m1620 -96 c20 -17 16 -31 -19 -60 -30 -25 -31 -27 -11 -28 12 0 29 10 37
21 18 27 47 19 39 -11 -7 -26 -49 -60 -75 -60 -76 0 -117 96 -61 140 28 22 63
21 90 -2z m-1732 -35 c88 -43 95 -48 78 -60 -10 -8 -28 -11 -42 -8 -36 9 -63
-20 -55 -60 4 -21 1 -35 -9 -44 -13 -10 -22 2 -61 85 -51 108 -51 105 -34 122
17 17 16 17 123 -35z m1490 -73 c17 -19 18 -19 43 0 33 27 62 25 95 -5 38 -36
37 -86 -2 -126 -16 -16 -33 -29 -38 -29 -5 0 -42 33 -82 74 -64 64 -73 77 -61
90 16 21 23 20 45 -4z m23 -116 c52 -36 44 -106 -15 -130 -36 -16 -55 -10 -86
24 -27 30 -30 66 -6 96 24 31 72 35 107 10z m-138 -96 c39 -40 70 -78 70 -84
0 -21 -57 -74 -80 -74 -12 0 -35 9 -51 21 -24 17 -29 28 -29 60 0 22 5 48 12
59 10 15 9 22 -4 37 -12 13 -14 23 -7 36 6 9 12 17 15 17 2 0 36 -33 74 -72z
m-22 -175 c2 -1 -1 -11 -7 -22 -10 -17 -16 -19 -38 -10 -37 14 -63 -11 -60
-60 2 -28 -2 -36 -15 -36 -12 0 -31 27 -59 87 -40 83 -41 88 -26 111 l16 24
93 -46 c51 -25 94 -47 96 -48z"/>
<path d="M4220 7360 l765 -5 -740 -4 c-407 -2 -750 -2 -763 -1 l-23 2 1 -171
c1 -139 4 -171 16 -171 19 0 24 27 27 155 3 94 3 90 3 -22 l-1 -132 453 -1
452 0 0 38 c0 27 7 45 23 61 21 19 25 20 37 6 11 -13 10 -19 -4 -33 -22 -25
-20 -49 5 -63 17 -9 25 -7 45 12 21 20 26 21 34 9 5 -8 10 -18 10 -22 0 -12
430 -10 430 2 0 5 -8 7 -17 4 -17 -5 -17 -5 0 9 15 12 17 34 17 176 l0 161
-767 -2 -768 -3 765 -5z m360 -171 l0 -39 44 0 c51 0 65 -13 41 -36 -11 -12
-26 -15 -51 -11 -38 6 -41 2 -17 -25 15 -17 15 -20 3 -28 -8 -6 -18 -9 -22 -7
-12 4 -148 139 -148 147 0 4 7 13 15 20 13 10 22 5 55 -31 l39 -44 1 47 c0 28
5 48 13 51 21 7 27 -3 27 -44z"/>
<path d="M2631 7053 c0 -47 3 -62 9 -48 5 11 9 14 9 8 1 -7 11 -13 24 -13 59
0 88 -90 46 -144 -24 -30 -45 -33 -71 -9 -17 16 -18 -9 -18 -768 0 -431 4
-779 8 -772 11 18 36 -2 28 -22 -9 -23 20 -55 50 -55 29 0 38 -14 24 -40 -16
-30 -54 -25 -84 11 -22 26 -26 27 -26 11 0 -11 7 -25 15 -32 8 -7 15 -28 15
-47 0 -21 -6 -36 -15 -39 -13 -5 -15 -95 -15 -723 0 -446 4 -710 10 -701 8 12
12 11 32 -7 23 -21 23 -21 47 -2 32 26 63 24 95 -7 40 -41 30 -108 -21 -141
-21 -14 -26 -12 -93 55 l-70 71 0 -39 c0 -32 3 -37 18 -33 31 8 82 -43 82 -81
0 -50 -26 -79 -66 -74 l-34 4 0 -393 0 -393 1600 0 1600 0 0 254 c0 249 0 255
-21 261 -32 10 -61 -22 -53 -58 4 -20 2 -32 -7 -38 -21 -13 -27 -11 -34 14 -4
12 -23 54 -43 93 -33 66 -34 73 -20 88 23 22 29 21 108 -19 69 -35 89 -35 50
0 -23 21 -27 74 -8 105 10 15 9 22 -6 39 -16 17 -17 23 -6 36 7 9 19 14 27 11
11 -4 13 118 13 722 0 676 -1 725 -16 703 -14 -20 -23 -23 -58 -18 l-41 6 3
-39 c3 -33 -1 -43 -27 -69 -18 -17 -34 -31 -36 -31 -2 0 -38 34 -80 76 -61 61
-74 79 -64 90 15 18 28 18 51 -3 17 -15 19 -15 36 0 24 22 70 22 94 0 17 -16
17 -15 2 16 -30 60 12 120 75 106 46 -10 50 -41 9 -76 -22 -19 -28 -28 -17
-29 9 0 28 11 43 25 23 21 26 32 26 85 0 34 -4 60 -10 60 -16 0 -29 42 -23 73
3 15 12 27 19 27 12 0 14 112 14 706 0 641 -1 704 -16 690 -23 -24 -71 -20
-99 9 -28 27 -31 52 -13 101 10 27 9 35 -6 49 -13 13 -14 20 -5 31 19 23 31
17 87 -41 28 -31 52 -49 52 -41 0 7 -7 19 -15 26 -8 7 -15 27 -15 45 0 18 7
38 15 45 12 10 15 44 15 186 l0 174 -350 0 -350 0 0 -105 c0 -157 33 -145
-386 -145 -227 0 -343 -3 -339 -10 4 -6 -8 -10 -29 -10 -20 0 -36 5 -36 10 0
6 -14 10 -32 10 -30 0 -31 -1 -12 -15 10 -8 29 -15 42 -15 24 0 30 -28 10 -48
-20 -20 -45 -14 -80 18 -18 17 -40 30 -50 30 -10 0 -18 7 -18 15 0 8 -7 15
-15 15 -9 0 -12 -6 -9 -15 4 -9 1 -15 -8 -15 -15 0 -43 -39 -34 -48 3 -3 17 0
31 6 33 15 78 15 93 0 7 -7 12 -27 12 -45 0 -53 -73 -108 -96 -72 -3 6 9 23
27 39 40 33 32 49 -14 32 -49 -18 -74 -15 -91 10 -19 26 -12 66 16 90 19 17 0
18 -369 21 -387 4 -412 5 -411 16 0 3 0 57 -1 119 l-1 112 -181 0 c-103 0
-178 -4 -175 -9 7 -11 -37 -23 -58 -15 -9 3 -16 10 -16 15 0 5 -61 9 -135 9
l-135 0 1 -67z m184 40 l24 -18 -37 -37 c-27 -28 -32 -38 -19 -38 9 0 27 11
39 25 16 19 24 22 35 14 7 -6 13 -17 13 -23 0 -15 -38 -51 -62 -59 -26 -9 -75
11 -92 38 -21 33 -20 57 5 89 24 31 60 34 94 9z m1270 -423 c18 -20 18 -21
-15 -55 -31 -32 -32 -35 -12 -35 12 0 26 9 32 20 12 23 38 26 46 6 10 -26 -39
-68 -81 -69 -30 -1 -42 5 -61 28 -31 38 -30 70 1 100 29 30 66 32 90 5z m1603
-135 c82 -38 83 -39 64 -58 -16 -16 -23 -17 -42 -7 -12 6 -23 10 -23 8 -1 -2
-10 -13 -20 -25 -15 -17 -16 -25 -7 -43 11 -21 0 -50 -21 -50 -4 0 -29 43 -54
96 -44 90 -45 97 -30 114 11 12 23 16 33 11 10 -4 54 -24 100 -46z m-1848 36
c0 -17 33 -21 50 -6 27 24 75 19 99 -11 32 -41 28 -90 -11 -126 l-31 -29 -56
54 c-31 30 -66 63 -79 74 -14 13 -20 26 -16 36 6 18 44 24 44 8z m-442 -113
l207 -2 -220 -6 -220 -6 254 -2 c226 -2 257 -4 274 -19 14 -13 18 -14 11 -3
-10 17 -18 68 -10 59 3 -3 8 -16 10 -30 2 -13 5 -24 6 -24 1 0 3 -14 6 -32 2
-22 18 -45 49 -74 45 -41 45 -42 29 -68 -20 -32 -56 -61 -66 -55 -4 3 -8 -71
-8 -165 0 -162 -1 -171 -22 -196 l-23 -26 -280 -2 c-251 -2 -282 0 -297 15
-15 15 -17 48 -18 302 -1 284 -1 284 22 300 12 9 30 16 40 16 10 0 18 4 18 10
0 6 -9 6 -25 0 -19 -7 -23 -6 -19 5 3 8 12 11 21 8 11 -4 14 -2 9 5 -5 9 0 9
19 2 15 -6 119 -11 233 -12z m455 0 c33 -17 46 -39 47 -75 0 -67 -72 -96 -126
-50 -21 18 -27 33 -28 70 -2 25 1 44 6 41 4 -3 18 2 30 10 27 19 42 20 71 4z
m112 -308 c3 -6 0 -13 -8 -16 -15 -5 -19 -34 -5 -34 4 0 8 7 8 15 0 8 11 22
24 30 21 14 103 15 701 13 593 -3 679 -5 681 -18 2 -8 6 -27 10 -41 4 -19 -2
-34 -22 -60 -19 -23 -21 -28 -7 -15 21 18 22 18 21 0 -1 -14 -10 -19 -29 -19
-15 -1 -25 3 -23 7 7 12 -1350 15 -1358 3 -4 -5 -8 -6 -8 -1 0 5 -8 2 -17 -5
-16 -12 -17 -12 -6 2 7 9 10 19 6 23 -10 10 -12 36 -3 36 5 0 12 -4 15 -10 3
-5 1 -10 -6 -10 -10 0 -10 -3 -2 -11 6 -6 16 -8 22 -5 13 8 3 37 -17 54 -23
18 -23 44 0 50 15 4 17 7 6 13 -9 6 -9 9 -1 9 6 0 15 -5 18 -10z m1057 -242
c3 -42 4 -43 45 -49 53 -7 59 -12 37 -34 -13 -12 -27 -15 -52 -11 -33 5 -34 5
-17 -14 15 -16 16 -22 5 -35 -7 -9 -16 -14 -21 -13 -4 2 -40 34 -79 71 -54 52
-69 73 -65 88 9 28 29 23 64 -16 17 -19 33 -35 36 -35 3 0 5 13 5 29 0 71 37
87 42 19z m-107 -89 c4 -5 -1 -19 -10 -29 -24 -26 -11 -60 22 -60 14 0 31 7
38 17 14 19 35 9 35 -17 0 -40 -87 -67 -119 -37 -12 10 -13 8 -6 -8 20 -51 17
-74 -10 -99 -37 -34 -70 -33 -106 3 -35 36 -38 75 -7 108 24 26 75 31 97 11
11 -11 12 -8 5 12 -12 38 -8 69 12 91 19 21 39 25 49 8z m-1951 -220 c2 -13 5
-31 5 -40 1 -12 15 -18 51 -22 28 -3 58 -11 68 -17 15 -10 14 -11 -5 -7 -15 3
-24 -1 -28 -12 -4 -13 -14 -16 -47 -13 -42 4 -43 4 -25 -15 16 -19 16 -20 -1
-36 -17 -16 -22 -12 -95 61 -61 61 -75 80 -65 90 19 19 29 15 70 -25 l38 -37
0 46 c0 28 5 48 13 51 16 6 16 5 21 -24z m1652 -20 c3 -6 -5 -22 -20 -35 -32
-31 -34 -49 -3 -40 66 20 94 19 110 -5 30 -43 -12 -123 -62 -117 -36 4 -36 24
-2 44 43 25 42 49 -1 39 -68 -15 -88 -14 -103 8 -21 30 -19 51 11 86 26 31 57
40 70 20z m-909 -60 c12 -2 19 -7 17 -11 -3 -5 -10 -6 -15 -3 -5 3 -6 -1 -3
-9 7 -19 24 -21 25 -3 0 9 2 9 6 -1 2 -6 10 -9 16 -5 7 4 6 -1 -2 -10 -7 -9
-17 -14 -22 -11 -5 3 -9 -109 -9 -261 0 -244 -2 -269 -18 -290 l-19 -24 -281
-1 c-278 -1 -281 0 -301 22 -20 21 -21 33 -21 302 0 169 -4 275 -9 267 -5 -8
-7 -21 -4 -30 4 -13 3 -14 -5 -2 -11 15 4 59 15 47 3 -3 17 4 31 15 24 19 37
19 301 15 152 -2 286 -5 298 -7z m-842 -20 c4 -5 -1 -19 -10 -29 -33 -37 6
-90 43 -57 23 21 41 22 48 2 13 -32 -68 -75 -105 -56 -23 13 -42 15 -24 3 7
-4 15 -21 19 -38 4 -24 0 -35 -22 -57 -34 -34 -71 -35 -107 -2 -67 63 3 168
84 124 19 -9 19 -9 10 10 -16 30 -13 55 10 85 21 27 43 33 54 15z m1675 -144
c0 -7 -11 -20 -25 -29 -25 -16 -33 -36 -16 -36 5 0 19 11 32 24 17 18 27 22
36 14 18 -15 16 -28 -9 -55 -27 -29 -97 -32 -120 -5 -39 44 -33 93 15 122 30
19 31 19 59 -1 15 -11 28 -26 28 -34z m-212 -82 c27 25 69 21 98 -8 l25 -25
441 0 c440 0 442 0 465 -22 30 -28 29 -63 -3 -95 -14 -14 -19 -23 -10 -20 9 4
16 2 16 -3 0 -14 -24 -12 -38 2 -8 8 -12 8 -12 1 0 -6 -7 -14 -16 -17 -8 -3
-12 -2 -9 4 4 7 -159 10 -469 10 -468 0 -476 0 -476 -20 0 -58 -80 -81 -125
-35 -14 13 -25 31 -25 40 0 10 -9 15 -27 15 -27 0 -26 -2 29 -56 57 -55 58
-56 43 -84 -18 -35 -43 -50 -82 -50 -62 0 -95 74 -57 129 15 21 15 23 -7 39
-13 9 -37 20 -54 23 -16 4 -39 10 -50 14 -20 8 -20 8 -1 -14 17 -18 17 -21 3
-15 -9 3 -18 11 -19 18 -3 25 -4 32 -12 54 -8 25 -26 30 -26 6 0 -8 5 -12 10
-9 6 3 10 1 10 -5 0 -7 -6 -10 -12 -8 -15 5 -22 75 -8 83 4 3 6 -5 4 -17 -2
-13 -1 -17 2 -9 4 8 9 9 13 3 3 -5 14 1 25 16 12 15 14 22 5 17 -8 -4 -11 -5
-7 0 4 4 69 7 143 6 119 -2 134 -1 129 13 -4 9 -1 23 6 31 12 14 16 13 36 -6
22 -21 25 -21 42 -6z m-265 -343 c48 -24 87 -50 87 -56 0 -17 -29 -25 -49 -14
-26 14 -64 -28 -56 -62 4 -16 1 -29 -10 -38 -8 -7 -17 -11 -18 -9 -1 2 -22 45
-46 95 -43 89 -43 91 -25 112 10 12 21 21 24 19 3 -1 44 -22 93 -47z m1506
-185 c70 -35 48 -145 -28 -145 -73 0 -110 96 -55 139 32 25 46 26 83 6z m-122
-107 c71 -71 72 -72 57 -99 -28 -54 -94 -66 -134 -24 -27 28 -30 80 -6 104 14
14 14 17 -6 38 -17 18 -19 25 -8 38 7 8 15 15 18 15 4 0 39 -32 79 -72z
m-2367 -9 c0 -6 -4 -7 -10 -4 -5 3 -10 2 -10 -4 0 -15 18 -23 25 -11 4 6 10 8
15 5 5 -3 138 -7 294 -8 229 -2 287 1 291 11 3 10 -1 12 -18 7 -19 -5 -20 -5
-4 5 14 9 22 8 34 -1 22 -19 46 -20 39 -3 -3 8 -2 13 3 10 12 -8 21 -45 11
-51 -4 -3 -11 3 -14 12 -6 15 -8 15 -16 3 -7 -11 -10 -12 -10 -2 0 7 -4 10
-10 7 -6 -4 -4 -14 5 -28 11 -18 14 -74 15 -285 1 -144 5 -264 10 -267 11 -7
22 24 13 38 -3 7 -2 8 3 4 9 -9 15 -67 7 -67 -2 0 -14 5 -25 11 -18 10 -20 9
-14 -7 4 -10 4 -15 0 -12 -4 4 -16 1 -28 -7 -16 -12 -62 -15 -233 -15 -130 0
-214 -4 -218 -10 -8 -12 -75 -13 -75 -1 0 5 -8 11 -17 14 -10 2 -27 8 -38 12
-16 7 -14 2 8 -22 19 -20 35 -29 48 -26 23 7 36 -21 19 -42 -20 -24 -54 -18
-85 15 -16 17 -34 30 -41 30 -7 0 -21 16 -30 36 -16 33 -16 36 0 52 16 16 18
16 30 0 7 -10 16 -15 19 -11 4 3 7 129 7 279 0 171 4 275 10 279 6 3 10 13 10
21 0 8 -5 12 -10 9 -6 -4 -7 -12 -3 -18 4 -7 -1 -6 -11 2 -30 25 -37 47 -15
48 10 1 19 -3 19 -8z m2349 -172 c1 -4 -10 -12 -24 -19 -18 -8 -28 -8 -39 1
-23 19 -59 -25 -50 -62 3 -16 1 -34 -6 -42 -10 -12 -8 -15 11 -16 13 0 33 -2
44 -5 11 -2 32 1 48 6 17 5 27 5 27 -1 0 -5 -4 -9 -9 -9 -16 0 -21 -31 -9 -53
21 -39 19 -64 -5 -63 -11 1 -22 7 -25 14 -2 8 2 10 14 5 14 -5 16 -2 10 23 -4
16 -8 39 -8 50 0 16 -5 20 -20 16 -12 -3 -17 -10 -14 -19 3 -8 6 -22 6 -31 0
-13 2 -14 9 -4 7 11 9 11 14 -2 4 -9 3 -15 -1 -15 -24 4 -33 -3 -27 -20 3 -11
0 -23 -6 -27 -9 -5 -10 -2 -6 9 7 19 -3 23 -19 7 -6 -6 -259 -11 -686 -12
-372 -2 -675 -1 -672 1 2 2 -5 14 -15 28 -11 13 -18 29 -17 36 7 37 20 58 42
63 13 3 24 9 24 13 0 6 1090 3 1207 -4 l63 -3 -14 31 c-7 18 -28 62 -47 99
-32 65 -32 68 -15 87 17 19 19 19 116 -27 55 -26 99 -50 99 -55z m-2430 -491
c10 -12 7 -18 -13 -31 -14 -10 -26 -24 -26 -31 0 -17 2 -17 51 -2 56 16 89 -2
89 -49 0 -58 -77 -120 -94 -76 -5 11 4 25 26 44 40 33 31 48 -18 30 -51 -18
-91 -7 -99 29 -7 33 6 62 37 84 28 20 32 20 47 2z m1681 -103 c0 -30 2 -31 50
-38 28 -4 50 -9 50 -12 0 -14 -38 -32 -69 -33 -33 0 -34 0 -16 -20 15 -16 16
-22 5 -35 -7 -9 -17 -14 -21 -13 -4 2 -42 36 -84 77 -73 71 -75 74 -59 93 17
18 19 17 61 -24 l44 -43 -3 37 c-2 41 20 78 33 56 5 -7 9 -27 9 -45z m-105
-73 c3 -5 -2 -21 -11 -35 -31 -47 10 -84 50 -46 20 19 25 20 35 7 30 -36 -52
-91 -98 -66 -19 10 -20 9 -12 -14 20 -50 -17 -106 -69 -106 -39 0 -70 29 -76
72 -11 62 52 107 107 77 19 -10 20 -9 9 11 -26 48 37 145 65 100z m-1664 -19
l24 -20 -34 -35 c-32 -33 -33 -36 -14 -36 12 0 29 10 37 22 13 18 18 20 28 10
20 -20 -10 -64 -50 -76 -27 -7 -38 -6 -60 11 -67 50 -49 139 29 142 9 1 27 -8
40 -18z m744 -37 c-11 -8 -27 -19 -35 -24 -8 -5 -11 -12 -6 -17 5 -4 11 -2 13
5 3 6 17 11 31 11 l27 -2 -25 -5 -25 -5 25 -6 c14 -4 34 -20 45 -37 19 -28 20
-40 13 -294 -7 -300 -7 -300 -27 -292 -8 3 -12 1 -9 -4 4 -5 -111 -8 -289 -6
-162 1 -292 -1 -290 -6 3 -4 -3 -8 -14 -8 -10 0 -19 4 -19 9 0 4 -6 5 -12 1
-9 -6 -9 -3 1 9 7 9 10 25 7 34 -5 16 -4 16 9 -1 8 -10 12 -23 8 -29 -3 -6 -1
-7 5 -3 9 5 9 13 2 27 -7 12 -10 118 -8 299 3 242 1 280 -12 284 -24 6 18 8
282 12 223 4 247 6 252 22 3 9 16 22 28 28 34 17 46 16 23 -2z m614 -188 c10
-12 7 -18 -13 -31 -33 -22 -35 -50 -3 -42 76 20 78 20 101 -2 15 -14 22 -30
19 -42 -5 -19 5 -19 480 -19 l486 0 20 -26 c25 -32 26 -52 5 -82 -18 -27 -14
-28 13 -4 26 22 24 62 -5 86 -27 22 -23 33 6 15 17 -10 23 -10 37 1 9 7 14 19
11 27 -3 8 -1 11 4 8 15 -9 12 -24 -10 -52 -19 -25 -28 -59 -12 -50 4 3 8 -8
9 -25 2 -24 -1 -28 -16 -23 -11 3 -26 -1 -35 -10 -9 -9 -16 -13 -16 -8 0 4
-250 7 -554 5 l-555 -2 -30 -30 c-38 -39 -74 -39 -111 -1 -18 18 -44 31 -67
34 -71 9 -78 13 -75 36 2 13 -2 21 -12 21 -8 0 -18 4 -21 10 -3 5 0 7 9 4 9
-4 20 5 30 24 8 16 23 32 31 36 9 3 88 6 176 6 140 0 159 2 159 16 0 12 -5 15
-22 9 -13 -4 -41 -9 -63 -12 -33 -4 -42 -1 -53 17 -18 29 -6 75 25 100 31 24
37 25 52 6z m-329 -301 c7 -8 18 -15 25 -15 7 0 18 7 25 15 7 8 27 15 44 15
44 0 81 -48 73 -95 -6 -34 -42 -85 -62 -85 -6 0 -44 33 -84 74 -64 64 -73 77
-61 90 16 20 24 20 40 1z m-1289 -298 l1 -297 1142 -3 1141 -2 -1147 -3 -1148
-2 0 307 c0 168 2 304 5 302 2 -3 5 -138 6 -302z m1329 165 c27 -34 26 -87 -2
-106 -69 -48 -160 23 -122 95 27 52 88 58 124 11z m-235 -22 c10 8 30 -6 84
-62 80 -81 84 -100 31 -138 -71 -51 -152 25 -114 106 15 32 15 34 -10 60 -14
15 -22 32 -19 38 4 6 8 5 11 -2 3 -9 7 -10 17 -2z m-25 -195 c50 -25 90 -48
90 -51 0 -3 -7 -12 -15 -20 -11 -12 -19 -12 -35 -4 -16 8 -25 7 -44 -7 -19
-15 -22 -22 -13 -40 5 -12 7 -29 4 -37 -13 -32 -34 -14 -67 57 -19 39 -41 80
-49 90 -13 15 -12 19 5 37 10 10 22 19 27 19 4 1 48 -19 97 -44z"/>
<path d="M3234 6293 c-9 -14 -6 -21 10 -36 12 -10 15 -16 9 -12 -10 5 -13 -23
-13 -124 0 -81 -4 -131 -10 -131 -5 0 -10 -7 -10 -15 0 -8 5 -15 11 -15 5 0 7
5 4 10 -3 6 -2 10 4 10 5 0 12 -6 15 -12 3 -7 3 -2 0 11 -4 15 -2 21 4 17 6
-3 13 -2 17 4 3 5 11 10 18 10 6 0 2 -7 -9 -15 -17 -13 -6 -14 109 -15 95 0
127 3 127 13 0 6 5 4 11 -6 6 -11 7 -23 2 -28 -4 -4 -69 -10 -143 -12 l-135
-3 163 -1 162 -1 0 62 c0 43 -3 57 -10 46 -8 -12 -10 -12 -10 5 0 31 -54 145
-66 141 -18 -7 -13 28 9 51 18 21 22 21 48 7 l29 -15 0 36 c0 19 -5 35 -11 35
-5 0 -7 -6 -3 -12 6 -10 4 -10 -7 0 -9 8 -57 12 -164 12 -131 0 -151 -2 -161
-17z m106 -63 c0 5 13 5 31 0 16 -5 38 -6 47 -4 15 5 15 4 2 -6 -13 -9 -12
-10 6 -8 11 2 20 1 20 -2 -1 -3 9 -18 22 -34 25 -32 28 -57 10 -89 -15 -28
-19 -49 -7 -41 5 3 6 10 3 16 -4 7 -2 8 4 4 6 -4 9 -13 5 -21 -6 -16 -19 -20
-27 -7 -3 5 -27 6 -54 2 -42 -5 -52 -3 -68 15 -23 26 -24 28 -24 67 0 35 -8
34 -15 -2 -8 -40 -10 -30 -10 35 0 35 3 58 7 52 4 -7 8 -20 8 -29 0 -24 9 -22
31 6 11 14 29 27 42 29 19 4 18 4 -5 6 -16 0 -28 -4 -29 -11 0 -10 -2 -10 -6
0 -2 6 -11 12 -18 12 -8 0 -17 4 -20 10 -4 7 3 7 19 0 15 -5 26 -6 26 0z"/>
<path d="M3223 5384 c3 -3 73 -5 156 -5 83 1 151 -2 151 -6 0 -4 -59 -7 -131
-6 -72 1 -137 -1 -145 -4 -11 -4 -14 -38 -16 -167 l-2 -161 -6 170 -6 170 -2
-172 c-2 -169 -1 -173 19 -173 11 0 17 5 14 10 -3 6 -1 10 4 10 6 0 11 -4 11
-10 0 -6 58 -10 155 -10 l155 0 0 180 0 180 -182 0 c-100 0 -179 -3 -175 -6z
m210 -87 c-2 -4 3 -10 12 -13 23 -9 48 -62 41 -89 -3 -13 -2 -27 4 -30 6 -4 7
1 3 11 -4 11 -3 15 4 11 7 -5 9 1 6 15 -3 13 -2 19 3 15 5 -4 9 -23 9 -41 1
-29 -1 -32 -21 -28 -13 2 -33 -3 -46 -12 -27 -19 -61 -21 -91 -4 -20 10 -21
10 -8 -5 12 -15 10 -17 -27 -17 -39 0 -44 7 -32 40 1 3 2 8 1 12 0 4 6 5 15 1
18 -7 12 -29 -7 -25 -8 2 -10 0 -6 -4 4 -4 14 -9 22 -10 17 -3 21 31 5 41 -17
11 -11 66 11 101 11 19 25 32 29 29 5 -3 11 -2 13 2 3 5 19 8 35 8 17 0 28 -3
25 -8z"/>
<path d="M3220 4290 c0 -102 4 -180 9 -180 5 0 7 13 5 29 -4 21 2 37 22 60 24
29 28 31 42 17 14 -14 14 -17 -1 -34 -21 -23 -21 -39 -3 -58 20 -20 35 -18 56
8 l17 22 14 -22 c13 -20 22 -22 106 -22 l93 0 -2 183 c-2 178 -2 180 -8 62
l-6 -120 -2 108 -2 107 -147 2 -148 2 150 6 150 6 -172 2 -173 2 0 -180z m190
6 l0 -43 45 -6 c54 -6 62 -11 45 -32 -7 -9 -29 -15 -53 -15 -39 0 -39 -1 -23
-19 15 -17 15 -20 2 -34 -8 -8 -12 -19 -8 -23 3 -5 -31 27 -76 71 -79 77 -101
115 -65 115 9 0 35 -17 56 -37 l39 -38 -5 35 c-3 23 0 41 11 53 24 27 32 20
32 -27z"/>
<path d="M3220 3375 l0 -185 169 0 170 0 -2 168 c-2 146 -4 167 -18 164 -9 -1
-16 4 -16 10 0 7 12 14 25 15 18 1 21 -1 11 -8 -10 -6 -10 -9 -2 -9 9 0 13
-45 16 -172 l3 -173 2 188 2 187 -180 0 -180 0 0 -185z"/>
<path d="M7030 7358 l-35 -10 23 -18 22 -19 -22 -15 c-26 -18 -38 -20 -38 -6
0 6 3 9 8 9 18 -3 32 2 32 12 0 6 -7 8 -16 5 -9 -4 -23 -1 -31 5 -11 10 -22 3
-57 -33 -57 -60 -76 -117 -76 -235 l0 -93 266 0 266 0 -4 110 c-2 83 -7 113
-18 120 -8 5 -18 6 -24 3 -5 -3 -6 -1 -2 5 4 7 2 13 -3 13 -36 4 -34 1 -24 37
4 18 8 20 14 10 12 -19 11 -30 -3 -22 -7 4 -8 3 -4 -5 4 -6 11 -9 16 -6 4 3
11 -2 14 -11 4 -9 9 -14 12 -11 6 6 -20 51 -49 84 -16 17 -24 20 -44 12 -15
-5 -22 -5 -18 0 3 5 1 12 -5 16 -6 4 -8 11 -5 16 3 5 -1 6 -10 2 -14 -5 -14
-8 -3 -15 9 -7 8 -8 -6 -4 -11 4 -23 1 -27 -6 -4 -7 -12 -9 -16 -4 -4 5 -2 11
5 13 10 4 7 9 -7 20 -12 8 -19 19 -16 24 8 12 -70 10 -115 -3z"/>
<path d="M6841 6733 c0 -55 3 -81 8 -68 5 11 6 25 3 30 -3 6 2 3 12 -5 11 -8
14 -16 7 -18 -40 -13 15 -16 201 -11 117 4 225 3 240 -2 17 -4 30 -4 34 3 4 6
10 5 15 -3 6 -10 9 -5 9 14 0 20 -4 26 -12 21 -10 -6 -10 -4 0 7 6 7 12 37 12
66 l0 53 -265 0 -265 0 1 -87z"/>
<path d="M6840 6340 c0 -131 3 -180 12 -180 6 0 46 -18 89 -40 81 -41 99 -47
99 -30 0 6 -6 10 -14 10 -7 0 -25 9 -40 21 -30 23 -35 72 -12 105 13 16 12 21
-1 36 -16 18 -15 49 4 55 6 2 23 -8 37 -22 l26 -26 0 116 0 115 -79 0 c-53 0
-82 -4 -89 -13 -6 -7 -13 -65 -15 -128 l-3 -114 -1 132 -1 132 97 4 96 3 -102
2 -103 2 0 -180z"/>
<path d="M7170 6485 c0 -38 18 -47 40 -20 31 38 107 6 124 -52 9 -29 -18 -81
-50 -95 -22 -10 -29 -7 -69 32 -25 24 -45 39 -45 32 0 -7 12 -23 27 -36 20
-17 27 -33 27 -58 0 -34 -22 -68 -43 -68 -8 0 -11 -434 -11 -1480 0 -1035 3
-1480 11 -1480 5 0 7 6 3 13 -6 10 -4 10 7 0 18 -18 156 -18 162 0 3 7 6 5 6
-5 1 -15 -12 -18 -96 -21 l-98 -3 103 -2 102 -2 -1 718 c0 394 -3 711 -6 705
-12 -31 -24 -13 -84 122 -5 11 -14 27 -21 37 -15 20 4 48 34 48 22 0 60 -18
70 -34 4 -6 8 352 8 797 0 688 -2 807 -14 807 -18 0 -68 59 -60 71 3 5 -23 9
-60 9 l-66 0 0 -35z"/>
<path d="M6843 4665 c1 -775 4 -1223 7 -995 l5 415 3 -401 c1 -295 5 -403 14
-412 7 -7 43 -12 90 -12 l78 0 0 1407 c0 1201 -2 1404 -14 1388 -11 -16 -18
-17 -37 -8 -44 19 -90 -32 -57 -65 8 -8 8 -15 -2 -27 -7 -8 -16 -15 -20 -15
-7 0 -52 85 -64 120 -2 8 -4 -619 -3 -1395z m19 208 c2 -364 0 -655 -4 -645
-4 9 -6 395 -5 857 1 462 3 752 4 645 2 -107 4 -493 5 -857z"/>
<path d="M6890 3095 c0 -4 7 -19 15 -35 15 -29 35 -40 35 -20 0 6 4 10 8 10 5
0 9 -6 9 -14 0 -8 -4 -14 -8 -13 -4 1 -7 -1 -8 -5 -3 -22 0 -29 9 -23 5 3 7 0
5 -7 -3 -8 2 -22 11 -33 8 -11 12 -14 8 -6 -5 9 -3 12 5 7 6 -4 9 -12 6 -17
-4 -5 10 -40 30 -77 29 -53 45 -71 76 -86 22 -10 43 -16 46 -12 3 3 -7 10 -22
16 -16 6 -34 18 -41 28 -17 21 -18 76 -2 101 9 15 8 22 -6 36 -19 19 -17 34 5
48 12 7 29 -5 74 -52 60 -63 83 -75 45 -23 -29 40 -24 88 13 116 23 17 32 19
57 9 24 -9 30 -8 35 5 3 9 3 13 -1 10 -3 -4 -16 4 -29 18 -22 24 -25 24 -199
24 -97 0 -176 -2 -176 -5z"/>
</g>
</svg>
